<svg width="192" height="218" viewBox="0 0 192 218" fill="none" xmlns="http://www.w3.org/2000/svg">
<path d="M89.175 100.48C114.295 100.48 133.495 104.8 146.775 113.44C160.055 122.08 166.695 134.56 166.695 150.88C166.695 168.48 159.335 181.92 144.615 191.2C129.895 200.32 110.055 204.88 85.095 204.88C62.855 204.88 44.615 200.72 30.375 192.4C16.295 183.92 8.215 171.44 6.135 154.96L27.735 153.76C29.495 164.64 35.495 172.8 45.735 178.24C56.135 183.52 69.255 186.16 85.095 186.16C102.535 186.16 116.695 183.04 127.575 176.8C138.455 170.56 143.895 161.92 143.895 150.88C143.895 140.64 139.015 132.48 129.255 126.4C119.495 120.16 105.335 117.04 86.775 117.04C75.415 117.04 64.055 118 52.695 119.92V104.08L128.055 52.72H16.215V34H160.695V51.04L85.335 100.72C86.135 100.56 87.415 100.48 89.175 100.48Z" fill="url(#paint0_linear_294_5951)"/>
<defs>
<linearGradient id="paint0_linear_294_5951" x1="88.5" y1="-70" x2="88.5" y2="282" gradientUnits="userSpaceOnUse">
<stop offset="0.350962" stop-color="#2394FF"/>
<stop offset="0.504808" stop-color="#043E73"/>
<stop offset="0.716346" stop-color="#000509"/>
</linearGradient>
</defs>
</svg>
