<svg width="192" height="218" viewBox="0 0 192 218" fill="none" xmlns="http://www.w3.org/2000/svg">
<path d="M39.6078 183.28H160.088V202H4.56781V184.96L103.448 115.36C112.248 109.44 119.208 103.6 124.328 97.84C129.448 91.92 132.008 85.12 132.008 77.44C132.008 68.32 127.768 61.44 119.288 56.8C110.968 52.16 100.088 49.84 86.6478 49.84C53.0478 49.84 34.5678 63.28 31.2078 90.16L9.84781 88.72C11.6078 69.36 19.3678 54.96 33.1278 45.52C46.8878 35.92 64.8078 31.12 86.8878 31.12C107.368 31.12 123.768 35.04 136.088 42.88C148.568 50.72 154.808 61.92 154.808 76.48C154.808 86.4 151.608 95.44 145.208 103.6C138.808 111.6 129.208 119.76 116.408 128.08L39.6078 183.28Z" fill="url(#paint0_linear_294_5949)"/>
<defs>
<linearGradient id="paint0_linear_294_5949" x1="84.5" y1="-70" x2="84.5" y2="282" gradientUnits="userSpaceOnUse">
<stop offset="0.350962" stop-color="#2394FF"/>
<stop offset="0.504808" stop-color="#043E73"/>
<stop offset="0.716346" stop-color="#000509"/>
</linearGradient>
</defs>
</svg>
